<svg width="41" height="45" viewBox="0 0 41 45" fill="none" xmlns="http://www.w3.org/2000/svg">
<path d="M5.74026 40.5647V33.7017C5.74026 28.7935 7.34969 24.1712 10.3945 20.3346C13.3481 16.613 17.5011 13.9403 22.0887 12.8086C23.7032 12.4104 25.2886 11.9906 26.82 11.5567C25.6073 8.24645 23.7606 4.94015 21.3158 1.71005L20.0214 0C16.4339 3.92093 12.3964 7.72884 7.68345 11.6368C4.49307 14.2824 2.23386 17.9806 1.32211 22.0503C0.382766 26.2431 0.877352 30.5088 2.75244 34.3862L5.74026 40.5647Z" fill="#004C40"/>
<path d="M39.3749 12.6772C37.2842 16.8651 34.6803 21.0128 31.6029 25.0509C28.4247 29.2211 24.7369 33.2856 20.6419 37.1314C16.9359 40.6119 13.5986 43.2601 11.249 45.0001H12.5628C17.8452 45.0001 22.4835 44.2038 26.3492 42.6335C29.8931 41.1938 32.814 39.0927 35.0307 36.3885C39.6922 30.7022 41.2304 22.291 39.3749 12.6772V12.6772Z" fill="#004C40"/>
<path d="M29.5289 23.4227C32.6499 19.3239 35.264 15.1148 37.3252 10.8733C34.6467 11.8902 31.8171 12.8398 28.8881 13.7035V13.7036C28.8794 13.7061 28.8704 13.7087 28.8617 13.7113L27.6487 14.069L27.6467 14.0625C26.0529 14.5154 24.4019 14.9534 22.7202 15.3683C18.6963 16.3609 15.0523 18.7067 12.4596 21.9736C9.78853 25.3393 8.37674 29.3948 8.37674 33.7018V43.8301C10.9006 42.0318 14.8061 39.0001 18.8824 35.1673C22.8634 31.424 26.4454 27.4726 29.5289 23.4227V23.4227Z" fill="#004C40"/>
</svg>
